PathFileType	3	(X/Y/Z)	D:\minhoCalibration\240510\subject1_KPNP\preferred\preferred03.trc
DataRate	CameraRate	NumFrames	NumMarkers	Units	OrigDataRate	OrigDataStartFrame	OrigNumFrames
200.0	200.0	24	10	mm	200.0	244	196	
Frame#	Time	Left_Ankle_Outer1			Left_Ankle_Inner1			Left_Knee_Outer1			Left_Knee_Inner1			Left_Wrist1			Right_Wrist1			Right_Knee_Inner1			Right_Knee_Outer1			Right_Ankle_Inner1			Right_Ankle_Outer1			
		X1	Y1	Z1	X2	Y2	Z2	X3	Y3	Z3	X4	Y4	Z4	X5	Y5	Z5	X6	Y6	Z6	X7	Y7	Z7	X8	Y8	Z8	X9	Y9	Z9	X10	Y10	Z10	
244	1.21	-460.49008	126.89835	-571.85492	-512.38306	135.29001	-557.0799	-390.22717	552.64825	-417.12155	-498.85193	527.82831	-432.91818	-367.56021	997.32733	-572.43127	-691.64404	1006.0339	-718.90082	-796.72614	562.36206	-572.54694	-865.49622	606.78241	-666.55328	-661.97107	335.92468	-940.9054	-725.883	362.26593	-1005.1893
245	1.215	-459.01382	127.99155	-571.75281	-510.75787	136.52274	-555.7627	-385.78156	554.41022	-420.61932	-494.56802	529.89154	-434.98175	-361.17288	1000.3094	-576.42847	-692.54144	1010.8975	-706.62476	-792.40668	567.54767	-550.617	-865.94653	612.65454	-642.2915	-661.68799	354.53229	-925.61963	-726.86218	380.99316	-988.48138
246	1.22	-457.58594	129.18831	-571.56726	-509.2525	138.31416	-555.5069	-381.11777	556.3501	-424.39713	-490.31924	532.05829	-437.17175	-354.59366	1003.2549	-581.22357	-693.72107	1016.239	-693.33838	-787.22925	573.56573	-528.04218	-864.54901	618.13922	-613.48138	-661.25684	373.55597	-909.3266	-727.61389	400.53967	-970.59021
247	1.225	-456.42999	130.51808	-571.34039	-507.61719	139.9032	-554.44592	-376.32971	558.44672	-428.34448	-485.73199	534.44763	-439.25201	-348.23468	1006.1846	-586.78717	-693.25165	1021.5009	-681.10956	-780.54926	580.29901	-504.57239	-862.8642	625.20972	-586.87238	-660.92523	392.87534	-892.2348	-728.46387	420.89127	-951.79364
248	1.23	-455.36832	132.07486	-571.04706	-506.32309	141.84853	-553.49261	-371.81381	560.55548	-432.63156	-481.26895	536.90552	-441.24771	-342.42725	1009.1292	-592.86371	-692.96826	1026.8595	-667.50769	-772.52197	588.29572	-481.60309	-860.11328	633.13928	-559.72321	-660.97784	412.36438	-874.37732	-729.58807	441.66571	-931.78021
249	1.235	-454.3873	133.75407	-570.69391	-505.22934	144.03043	-552.33612	-367.03555	562.79462	-436.92261	-477.44901	540.25781	-441.11102	-336.73605	1011.8856	-599.70483	-691.55206	1032.7759	-654.5899	-763.56	596.37775	-458.09869	-855.72443	641.87488	-531.64154	-661.5838	432.16489	-856.15625	-731.44885	463.41058	-911.32715
250	1.24	-453.66861	135.62236	-570.19135	-504.14902	146.37825	-550.75647	-362.10764	565.09271	-441.49234	-472.77866	542.96686	-442.73633	-331.96887	1014.7712	-606.76825	-689.73169	1038.2882	-641.61884	-752.84723	605.72382	-434.48935	-850.0069	651.37543	-503.05283	-662.7522	452.34518	-837.58051	-734.12482	485.11063	-889.77112
251	1.245	-452.98874	137.62697	-569.63599	-503.0564	148.87616	-548.99396	-357.18555	567.43787	-446.08057	-468.36716	545.85168	-443.73602	-327.95697	1017.8374	-614.00067	-687.05341	1044.3274	-629.05078	-741.10797	616.10492	-411.26971	-842.6167	661.72949	-474.1059	-665.02252	473.29828	-818.9527	-737.92932	507.31522	-867.61676
252	1.25	-452.34082	139.7737	-568.97113	-502.18021	151.53848	-547.06531	-352.23376	569.89496	-450.62582	-463.11456	549.19208	-445.32156	-324.33636	1021.0875	-621.55792	-683.76489	1050.2577	-617.03619	-727.87646	627.26245	-387.9548	-834.08374	672.79755	-445.52402	-667.64575	494.69614	-799.82971	-742.67615	529.57861	-844.60297
253	1.255	-451.88058	142.04413	-568.21625	-501.24835	154.23782	-544.89368	-347.35477	572.31689	-455.06412	-457.16476	551.60968	-447.79822	-321.6496	1024.1619	-629.35345	-679.96423	1057.2013	-604.93793	-713.73511	639.43396	-364.85608	-823.72742	684.55017	-416.50049	-671.00433	516.64795	-780.44653	-748.39337	552.07629	-820.91772
254	1.26	-451.56921	144.27461	-567.38147	-500.41675	156.95042	-542.75604	-342.27448	574.6438	-459.53412	-452.54538	554.14966	-448.25375	-319.02026	1027.2419	-637.41345	-675.61731	1063.8163	-594.08386	-698.74786	652.56696	-342.08603	-811.98901	697.242	-387.75964	-675.21515	539.07703	-760.45233	-755.02026	574.73352	-796.49426
255	1.265	-451.45465	146.45055	-566.58496	-499.6575	159.69748	-540.36249	-337.0181	576.92383	-464.13321	-447.19742	557.05432	-448.48517	-317.06497	1030.0504	-645.72272	-671.08099	1070.4001	-583.61407	-682.97797	666.64777	-319.69943	-798.80096	711.02722	-359.47748	-679.77686	561.48126	-739.69873	-761.54254	597.12408	-770.80212
256	1.27	-451.51135	148.61504	-565.88495	-499.12857	162.32962	-538.06219	-331.7041	578.90576	-468.83435	-441.18378	559.68433	-449.10178	-315.49878	1032.6843	-654.36841	-665.79419	1077.0667	-574.0636	-666.34241	681.63873	-297.70081	-784.10535	725.92395	-331.69653	-685.00079	583.86859	-718.1889	-768.55499	619.80347	-744.35474
257	1.275	-451.89923	150.8513	-565.1441	-498.74146	164.92738	-535.83826	-326.29034	580.79822	-473.74106	-434.3689	561.88434	-450.32275	-314.66257	1034.9078	-663.16254	-660.42773	1083.4713	-564.79517	-648.57507	697.25958	-276.54633	-768.13971	741.88715	-304.65201	-689.46045	606.07892	-696.25775	-775.19208	642.32965	-716.15088
258	1.28	-452.66553	152.70851	-564.66101	-498.31381	167.21571	-533.26276	-321.2265	582.04163	-478.73041	-428.75201	564.32727	-449.14075	-314.59747	1036.6757	-672.02448	-654.89569	1089.8578	-555.95844	-629.61664	713.51135	-256.62766	-750.52258	759.00342	-278.39859	-694.10577	627.95923	-674.14618	-782.29626	665.72052	-688.20142
259	1.285	-453.8027	154.41042	-564.28845	-497.77063	169.12962	-530.23236	-316.53522	582.93573	-484.11685	-421.35025	565.98553	-449.39362	-315.13229	1037.9729	-680.9054	-648.64813	1096.1731	-547.36243	-610.77197	730.77045	-236.37749	-731.91351	777.38525	-253.12689	-700.87207	648.48114	-649.03754	-787.78186	687.31494	-658.34662
260	1.29	-455.31094	155.94878	-564.06384	-497.90402	171.1319	-527.97797	-311.75452	583.57806	-489.54211	-414.3912	567.23712	-449.4162	-316.21701	1038.9661	-689.87354	-642.99054	1102.3977	-539.17377	-589.94318	747.91553	-218.46547	-711.92914	796.96558	-229.09555	-707.61462	668.44098	-623.68921	-793.77191	710.1687	-628.24725
261	1.295	-457.03906	157.34808	-563.9339	-498.24741	172.66064	-525.86237	-307.66647	583.65723	-495.31262	-407.71436	568.25598	-448.94894	-318.24677	1039.4738	-698.53302	-636.16302	1107.8075	-532.31549	-568.80597	765.28687	-202.12166	-690.15192	817.65594	-206.29514	-714.06842	687.85938	-597.75293	-798.91199	731.94385	-597.03589
262	1.3	-459.37561	157.96959	-563.09991	-498.72284	173.90335	-523.78876	-304.06137	583.51862	-501.13483	-401.21793	568.07861	-449.24973	-320.86807	1039.6357	-706.9986	-630.20996	1114.084	-524.80127	-547.02826	783.16803	-186.85022	-666.44763	839.84631	-184.33994	-720.73126	706.40753	-570.8797	-803.61377	753.17004	-564.99127
263	1.305	-461.47934	158.94908	-563.05133	-499.71188	174.79538	-521.67804	-301.64145	582.77838	-506.72412	-395.10153	567.82855	-449.60281	-324.56339	1039.2528	-714.8775	-623.95276	1119.5775	-518.16357	-524.51257	800.97424	-173.94466	-641.40381	862.117	-164.91422	-727.34424	723.95874	-542.78278	-808.13971	773.91364	-532.51605
264	1.31	-463.94125	159.45103	-562.57098	-500.62073	175.52966	-519.58527	-299.61316	581.76611	-512.23254	-389.41055	567.31854	-449.93536	-328.4848	1038.5269	-722.7829	-617.47119	1125.7732	-511.64191	-501.32452	818.71796	-163.61185	-614.37598	884.815	-147.96666	-734.01044	740.05762	-512.9884	-811.99921	793.23181	-498.50418
265	1.315	-466.56802	159.65799	-561.86932	-502.20294	176.06219	-517.47473	-298.65057	580.38458	-517.32532	-384.11014	566.30334	-450.93735	-333.5705	1037.3065	-729.57147	-611.67303	1131.1866	-505.24109	-478.56656	836.13287	-154.20819	-586.54468	907.27527	-133.63234	-740.80017	755.27307	-482.07632	-815.59082	811.72284	-463.68225
266	1.32	-469.60977	159.59032	-560.9118	-503.85104	176.31612	-515.67242	-298.61234	578.83752	-521.75757	-379.68671	564.69043	-453.23911	-339.44122	1035.4484	-735.52454	-605.72223	1136.175	-499.80453	-455.42325	853.18616	-147.11111	-558.29584	930.1347	-121.58296	-747.65637	768.24799	-448.52066	-818.41595	829.12445	-427.49872
267	1.325	-472.73795	159.40508	-559.91547	-505.95367	176.23283	-513.62555	-298.85303	577.23944	-525.45801	-376.98883	563.52075	-453.74832	-346.08398	1033.0924	-740.47949	-599.16211	1142.139	-492.82391	-432.95059	869.43219	-141.50473	-528.914	951.90735	-112.93101	-754.15833	781.51117	-413.18195	-820.5072	846.1344	-389.77353
